<svg
   xmlns="http://www.w3.org/2000/svg"
   width="512.086"
   height="214.38901"
   viewBox="0 0 135.48942 56.72376">
  <defs
     id="defs633">
    <linearGradient
       id="SVGID_1_"
       gradientUnits="userSpaceOnUse"
       x1="-528.64117"
       y1="753.24548"
       x2="-528.64117"
       y2="751.45361"
       gradientTransform="matrix(73.816631,0,0,-7.5551997,39088.69,5720.5976)">
      <stop
         offset="0"
         style="stop-color:#DDE0E5"
         id="stop177" />
      <stop
         offset="1"
         style="stop-color:#A3ADB6"
         id="stop179" />
    </linearGradient>
  </defs>
  <g
     id="g181"
     transform="scale(1.024083)">
    <path
       class="st3"
       d="m 4.678413,40.429353 h 3.806659 v -2.499027 h 2.731496 v 0.523051 H 8.485072 v 2.499027 H 4.678413 Z M 6.450979,29.154669 h -6.42192 v 0.523055 h 6.42192 z M 1.68539,40.400294 H 0.029059 v 0.523053 H 1.68539 Z m 19.556349,0.02907 v -2.411851 h 2.731495 v 0.523056 h -2.731495 v 2.411847 H 17.02826 v -0.523047 z m -0.900813,-5.75357 H 17.02826 v 0.523056 h 3.312666 z m 3.487016,-5.521109 H 12.378907 v 0.523055 h 11.449035 z m -9.792703,11.245629 h -1.656332 v 0.523053 h 1.656332 z m 47.772117,0.02907 v -2.411859 h 2.7315 v 0.523055 h -2.7315 v 2.411847 h -4.21348 V 40.42937 Z m -0.900812,-5.753592 h -3.312668 v 0.523055 h 3.312668 z m 3.487017,-5.521101 H 52.944524 v 0.523055 h 11.449037 z m -9.792706,11.245625 h -1.656331 v 0.523052 h 1.656331 z M 25.309924,29.154669 h 12.669491 v 0.523055 H 25.309924 Z m 4.823704,11.245625 h -1.772566 v 0.523053 h 1.772566 z m 4.765589,0 H 33.12665 v 0.523053 h 1.772567 z M 39.02552,29.154669 h 12.669491 v 0.523055 H 39.02552 Z m 4.852764,11.245625 h -1.772567 v 0.523053 h 1.772567 z m 4.765588,0 h -1.772567 v 0.523053 h 1.772567 z m 30.395151,0 h -1.45292 c -0.0291,-0.319644 -0.0291,-0.726461 -0.05812,-1.10422 0,-0.145292 0,-0.290584 0,-0.435879 -0.05811,-1.598217 -0.435879,-2.179383 -1.365752,-2.528086 -0.203407,0.05813 -0.406818,0.116234 -0.639286,0.174353 -0.145292,0.08717 0,0.17435 0,0.17435 1.365744,0.290583 1.917852,0.78458 2.005038,2.673376 0,0.145295 0,0.290583 0,0.435879 0,0.348701 0.0291,0.784581 0.05812,1.104217 h 1.45292 z m -1.307628,-7.700496 c 0,-0.203407 0,-0.406816 0,-0.581166 -0.05813,-1.307628 -0.290592,-1.859741 -0.755519,-2.324673 -0.464937,-0.464937 -1.162338,-0.610232 -2.208444,-0.610232 h -8.833775 v 0.523051 h 8.833775 c 1.046106,0 1.714445,0.174353 2.208444,0.610227 0.493998,0.464937 0.697399,1.017046 0.755519,2.324678 0,0.08717 0,0.203411 0,0.290583 0,-0.08717 0,-0.174348 0,-0.232468 z m -11.826797,7.700496 v 0.523053 h 1.656336 v -0.523053 z m 6.363803,0 v 0.523053 h -1.714446 v -0.523053 z m -1.714446,-4.968996 v -0.523055 h 2.818671 c 0.581167,0 0.784581,-0.02906 0.900807,-0.145287 0.174354,-0.174354 0.232468,-0.435879 0.232468,-1.278576 0,0.08717 0,0.174349 0,0.261525 0,1.075165 -0.05812,1.365748 -0.232468,1.540098 -0.116226,0.116233 -0.31964,0.145295 -0.900807,0.145295 z m 21.445149,3.196428 c 0,0.203411 0,0.406816 0,0.581174 v -0.05813 c -0.08717,-1.801623 -0.75552,-2.440914 -2.121272,-2.731496 -0.290583,-0.05812 -0.05812,-0.174353 0,-0.203407 0.174358,-0.05811 0.348708,-0.116234 0.523056,-0.203415 1.01705,0.377765 1.540101,1.046104 1.598216,2.615262 z m -3.370785,-4.998054 c 0,1.017049 -0.08717,1.336685 -0.232468,1.5401 -0.116235,0.116231 -0.290583,0.145292 -0.755516,0.145292 h -3.080201 v -0.523056 h 3.080201 c 0.435875,0 0.610228,-0.02906 0.755516,-0.145287 0.145295,-0.174353 0.232468,-0.464937 0.232468,-1.249514 0,0.05812 0,0.145288 0,0.232465 z m 3.25455,-1.104222 c 0,-0.145287 0,-0.290584 0,-0.435879 -0.05812,-1.162337 -0.319643,-1.83068 -0.813634,-2.324675 -0.46494,-0.464936 -1.133282,-0.639285 -2.208448,-0.639285 h -8.950006 v 0.523051 h 8.950006 c 1.075166,0 1.71445,0.17435 2.208448,0.639291 0.493991,0.493989 0.75552,1.162332 0.813634,2.324674 0,0.05811 0,0.116234 0,0.174352 0,-0.08718 0,-0.174352 0,-0.261529 z m -11.972088,7.903903 h 1.656336 v 0.523051 h -1.656336 z m 4.649353,0.639289 v -0.523056 h 3.167374 c 0.464936,0 0.639286,-0.02906 0.784577,-0.174354 0.116234,-0.116228 0.232468,-0.348697 0.232468,-1.33669 v 0.290593 c 0,1.191394 -0.08717,1.423862 -0.232468,1.569149 -0.145291,0.145296 -0.319641,0.174358 -0.784577,0.174358 z M 101.2397,36.273994 v 0.261522 c 0,3.516081 -0.0872,4.039132 -0.26153,4.213481 -0.11624,0.145287 -0.29059,0.17435 -0.87175,0.17435 h -2.586206 c -0.610233,0 -0.755528,-0.02906 -0.900816,-0.17435 -0.08717,-0.116234 -0.174353,-0.348703 -0.232464,-1.481982 -0.0291,-0.610228 -0.0291,-1.5401 -0.0291,-2.905848 v -0.261522 c 0,1.220452 0.0291,2.063149 0.0291,2.644314 0.0291,1.13328 0.11623,1.394809 0.232464,1.481987 0.145288,0.145286 0.290583,0.174348 0.900816,0.174348 h 2.586206 c 0.58116,0 0.75551,-0.02906 0.87175,-0.174348 0.17435,-0.145296 0.26153,-0.668347 0.26153,-3.951952 z m -8.16543,0 v -0.26153 c 0,-4.271596 0.348693,-5.521105 1.104221,-6.247568 0.464931,-0.464936 1.017045,-0.639285 2.295612,-0.639285 h 4.620297 c 1.30763,0 1.83068,0.174349 2.29562,0.639285 0.61023,0.581171 0.95893,1.481983 1.07517,4.068181 0.0291,0.755525 0.0291,1.481987 0.0291,2.237506 0,-0.581165 0,-1.133279 -0.0291,-1.714445 -0.11624,-2.586208 -0.46494,-3.48702 -1.07517,-4.068185 -0.46494,-0.464941 -0.98799,-0.639291 -2.29562,-0.639291 h -4.620297 c -1.307629,0 -1.830681,0.17435 -2.295612,0.639291 -0.726463,0.6974 -1.075165,1.917856 -1.104221,5.986041 z m 39.22892,-1.540101 c -0.11623,-2.528084 -0.55211,-3.777601 -1.30762,-4.56218 -0.75553,-0.755519 -1.6854,-1.017044 -3.45796,-1.017044 h -7.58427 v 0.523055 h 7.58427 c 1.77256,0 2.70243,0.261521 3.45796,1.017046 0.75551,0.755515 1.19139,2.034091 1.30762,4.562179 0,0.261521 0,-0.174358 0,-0.523056 z m -10.69351,5.666401 v 0.523053 h -1.65634 v -0.523053 z m 2.99303,0.523053 v -0.523053 h 2.52808 c 0.84269,0 1.16234,-0.05812 1.45292,-0.319644 0.3487,-0.348699 0.46494,-1.07516 0.46494,-3.806656 v 0.261522 c 0,2.934905 -0.11624,3.719488 -0.46494,4.068185 -0.29058,0.26153 -0.63928,0.319646 -1.45292,0.319646 z m -10.19953,-4.968997 3.22549,4.445944 h 1.33669 v 0.523053 h -1.33669 l -3.34172,-4.620295 v -0.203407 z m 4.44594,-6.799681 h -5.8698 v 0.523055 h 5.8698 z m -6.53815,5.143349 h -0.17434 l -1.62728,-2.469969 h -0.34871 l 0.11624,0.203406 1.85975,2.789615 h 0.17434 l 1.97598,-2.789615 0.14529,-0.203406 h -0.37776 z m -0.66835,-5.143349 h -6.24757 v 0.523055 h 6.24757 z m -5.05617,11.274684 h -1.30763 v 0.523051 h 1.30763 l 3.4289,-4.358769 v -0.203406 l -0.11623,-0.17435 z m 4.67841,0.116233 h -1.24951 l -0.23247,0.319645 -0.14529,0.203411 h 1.59822 v -0.523056 z m 1.33669,0 v 0.523056 h 1.59822 l -0.11623,-0.203411 -0.23247,-0.319645 z"
       id="path175"
       style="opacity:0.8;fill:#ffffff;enable-background:new" />
    <path
       class="st4"
       d="M 11.216568,38.453377 H 8.485072 v 2.499027 H 4.678413 v -0.174354 0 -8.833766 h 1.772566 v -2.26656 h -6.42192 v 2.26656 h 1.627273 v 0.203406 0 8.804714 H 0 v 2.295622 h 11.15845 v -4.794649 z m 12.727609,0.08717 H 21.21268 v 2.411851 h -4.213478 v -0.203407 0 -3.457957 h 3.312666 v -2.121268 h -3.312666 v -0.203415 0 -3.167371 h 4.068186 v 0.203412 0 2.005033 h 2.731496 V 29.67772 H 12.349848 v 2.179379 h 1.627273 v 0.203415 0 8.891886 h -1.656332 v 2.295626 h 11.56527 v -4.707477 z m 14.00618,-8.862829 H 25.280866 v 4.765586 h 2.586203 v -2.615261 h 2.237502 v 0.203406 0 8.920949 h -1.772566 v 2.266568 h 6.538154 v -2.266568 h -1.772567 v -0.203407 0 -8.920948 h 2.237503 v 0.203406 0 2.440913 h 2.586203 v -4.794644 z m 13.744654,0 H 39.02552 v 4.765586 h 2.586203 v -2.615261 h 2.237502 v 0.203406 0 8.920949 h -1.772567 v 2.266568 h 6.538156 v -2.266568 h -1.772567 v -0.203407 0 -8.920948 h 2.237502 v 0.203406 0 2.440913 h 2.586206 z m 12.843845,8.862833 h -2.7315 v 2.411851 h -4.21348 v -0.203407 0 -3.457957 h 3.312668 v -2.121266 h -3.312668 v -0.203415 0 -3.167371 h 4.068191 v 0.203412 0 2.005033 h 2.731494 V 29.677724 H 52.944524 v 2.179379 h 1.627275 v 0.203415 0 8.891886 h -1.656331 v 2.295622 h 11.565264 z m 9.734577,-3.25455 c -0.116226,0.116233 -0.31964,0.145295 -0.900807,0.145295 h -2.818671 v -0.203411 0 -3.428901 h 2.818671 c 0.581167,0 0.784581,0.05812 0.900807,0.145298 0.145296,0.174348 0.203415,0.406817 0.232468,1.046097 0,0.203416 0.0291,0.43588 0.0291,0.69741 -0.0291,1.133279 -0.08717,1.423862 -0.261522,1.598212 m 4.765586,7.932965 v -2.295621 h -1.452924 c -0.02906,-0.319646 -0.02906,-0.726462 -0.05811,-1.104222 0,-0.145292 0,-0.290583 0,-0.435875 -0.08717,-1.917858 -0.610224,-2.382798 -2.005039,-2.673381 0,0 -0.174344,-0.08717 0,-0.174353 1.598212,-0.319637 2.208445,-0.842696 2.208445,-3.283604 0,-0.203411 0,-0.406818 0,-0.581167 -0.05813,-1.307633 -0.290579,-1.859741 -0.755516,-2.324678 -0.464941,-0.464936 -1.16234,-0.610228 -2.208447,-0.610228 h -8.833789 v 2.179383 h 1.627277 v 0.20341 8.891891 h -1.656326 v 2.266565 h 6.334734 v -2.266563 h -1.714442 v -0.203412 -3.167369 h 2.179381 c 0.697409,0 0.987993,0.08717 1.249514,0.319641 0.232468,0.232473 0.319649,0.552108 0.348711,1.627273 v 0.145295 c 0,0.02906 0,0.02906 0,0.05811 0,0.116234 0,0.232468 0,0.348701 0.08716,2.063153 0.232461,2.528086 0.523048,2.818674 0.232468,0.23246 0.523055,0.37776 1.365747,0.37776 h 2.847729 z m 9.473057,-2.324684 c -0.145291,0.145296 -0.31964,0.174358 -0.784576,0.174358 h -3.167371 v -0.203411 0 -3.545134 h 3.167375 c 0.493993,0 0.639285,0.02906 0.755524,0.145295 0.145287,0.116231 0.232467,0.348699 0.26152,1.104219 0,0.20341 0.0291,0.435879 0.0291,0.726463 0,1.220455 -0.116233,1.452923 -0.26153,1.59821 z m -3.95199,-9.066235 h 3.080201 c 0.493991,0 0.639282,0.05812 0.755516,0.174349 0.145295,0.145292 0.232468,0.377765 0.232468,1.104218 0,0.145296 0,0.319645 0,0.523056 0,1.017049 -0.08717,1.336685 -0.232468,1.5401 -0.116234,0.116231 -0.290583,0.145292 -0.755516,0.145292 h -3.080201 v -0.203411 0 z m 7.468033,7.613315 c 0,-0.08717 0,-0.20341 0,-0.290582 -0.08717,-1.801623 -0.755524,-2.440913 -2.121269,-2.731496 -0.290587,-0.05812 -0.05812,-0.174353 0,-0.203407 1.307624,-0.406825 2.005029,-1.133288 2.005029,-3.196436 0,-0.145291 0,-0.290582 0,-0.435878 -0.05813,-1.162332 -0.31964,-1.830681 -0.813629,-2.324674 -0.464941,-0.464932 -1.133284,-0.639285 -2.208444,-0.639285 h -8.950021 v 2.17938 h 1.627278 v 0.203412 8.891886 h -1.656336 v 2.266572 h 8.950006 c 1.017045,0 1.743508,-0.203414 2.237506,-0.697413 0.581166,-0.493994 0.929874,-1.220452 0.929874,-3.022079 z m 4.562172,-7.322732 c 0.1453,-0.116232 0.290601,-0.145294 0.900819,-0.145294 h 2.586204 c 0.58117,0 0.75552,0.02906 0.87176,0.145296 0.11623,0.116234 0.17435,0.377759 0.23247,1.452925 0.0291,0.610227 0.0291,1.540096 0.0291,2.963959 0,3.516081 -0.0872,4.039132 -0.26153,4.213481 -0.11623,0.145287 -0.29058,0.17435 -0.87176,0.17435 h -2.586192 c -0.610224,0 -0.755523,-0.02906 -0.900815,-0.17435 -0.08717,-0.116234 -0.17435,-0.348703 -0.232464,-1.481982 -0.0291,-0.610228 -0.0291,-1.5401 -0.0291,-2.905848 0.0291,-3.545134 0.116225,-4.068185 0.261517,-4.242535 m -0.116233,11.100334 h 4.620297 c 1.30763,0 1.83068,-0.174349 2.29563,-0.639289 0.75551,-0.726462 1.10421,-1.975976 1.10421,-6.247568 0,-0.755519 0,-1.394805 -0.0291,-1.975971 -0.11623,-2.586208 -0.46493,-3.48702 -1.07516,-4.068185 -0.46493,-0.464941 -0.98799,-0.639291 -2.29562,-0.639291 h -4.620305 c -1.307628,0 -1.830679,0.17435 -2.295613,0.639291 -0.755528,0.6974 -1.104225,1.946913 -1.104225,6.247563 0,0.755524 0,1.39481 0.0291,1.975975 0.116239,2.557151 0.464937,3.487021 1.075165,4.068186 0.464931,0.46494 1.017045,0.639289 2.295612,0.639289 m 22.491256,-2.266562 h -1.33669 l -3.34172,-4.620295 v -0.20341 l 3.25454,-4.184415 h 1.33669 v -2.26656 h -5.86981 v 2.150325 h 1.45292 l -0.1453,0.203406 -1.97597,2.789615 h -0.17434 l -1.8888,-2.818672 -0.11624,-0.203412 h 1.48198 v -2.121262 h -6.24757 v 2.26656 h 1.33669 l 3.28361,4.445945 v 0.203406 l -3.4289,4.358769 h -1.30763 v 2.266562 h 5.98604 v -2.150324 h -1.59821 l 0.1453,-0.203411 2.09221,-2.993021 h 0.2034 l 1.97598,2.993021 0.11623,0.203411 h -1.59822 v 2.150324 h 6.39287 z m 5.63735,-0.02906 v -0.20341 0 -8.804719 h 2.52808 c 0.8427,0 1.16234,0.05812 1.45292,0.348706 0.26153,0.261527 0.40682,0.784574 0.46494,2.266559 0.0291,0.523052 0.0291,1.162337 0.0291,1.975976 0,2.934906 -0.11623,3.719488 -0.46494,4.068186 -0.29058,0.261525 -0.63928,0.31964 -1.45292,0.31964 h -2.55714 z m 6.3638,1.278575 c 0.87175,-0.871758 1.33668,-2.440916 1.33668,-5.840754 0,-0.406817 0,-0.755521 -0.0291,-1.104222 -0.11621,-2.528085 -0.55209,-3.777598 -1.30761,-4.56218 -0.75552,-0.755525 -1.68538,-1.017045 -3.45795,-1.017045 h -7.58425 v 2.266558 h 1.62727 v 0.203407 0 8.804714 h -1.65634 v 2.266559 h 7.55521 c 1.83069,0 2.78961,-0.290583 3.51607,-1.017041 z"
       id="path182"
       style="fill:url(#SVGID_1_)" />
    <circle
       class="st5"
       cx="49.32655"
       cy="9.9296656"
       r="9.9296656"
       id="circle184"
       style="fill:#ff9933" />
    <circle
       class="st6"
       cx="83.348518"
       cy="9.9296656"
       r="9.9296656"
       id="circle186"
       style="fill:#88ccff" />
    <circle
       class="st7"
       cx="66.337532"
       cy="9.9296656"
       r="9.9296656"
       id="circle188"
       style="fill:#66cc22" />
    <path
       class="st8"
       d="M 74.843013,15.032954 C 73.933126,13.52966 73.418836,11.789 73.418836,9.9296606 c 0,-1.859338 0.51429,-3.63956 1.424177,-5.103293 0.909889,1.503294 1.424174,3.243955 1.424174,5.103293 0,1.8593394 -0.514285,3.6395594 -1.424174,5.1032934 z"
       id="path190"
       style="fill:#b7f4ff" />
    <path
       class="st9"
       d="m 57.832037,4.8263676 c 0.909888,1.503294 1.424175,3.243955 1.424175,5.103293 0,1.8593394 -0.514287,3.6395594 -1.424175,5.1032934 C 56.922146,13.52966 56.407862,11.789 56.407862,9.9296606 c 0,-1.859338 0.514284,-3.63956 1.424175,-5.103293 z"
       id="path192"
       style="fill:#ffea4e" />
    <path
       class="st10"
       d="m 26.034868,48.964256 -3.143262,3.86649 -0.639779,2.55911 h -0.723229 l 0.639779,-2.58693 -1.251742,-3.81085 h 0.751046 l 0.973576,3.14325 h 0.05563 l 2.503484,-3.14325 h 0.834493 z m 3.393611,6.4256 h -1.529906 c -0.584147,0 -0.834494,-0.11127 -1.02921,-0.30598 -0.333798,-0.3338 -0.47288,-0.97358 0.02782,-3.00418 0.500696,-2.05842 0.834493,-2.44785 1.084843,-2.69819 0.361614,-0.38943 0.695412,-0.41725 1.307374,-0.41725 h 1.529907 c 0.584146,0 0.834494,0.11126 1.02921,0.30598 0.333797,0.3338 0.47288,0.97357 0,3.00417 -0.500698,2.05843 -0.834495,2.44786 -1.084845,2.69821 -0.38943,0.36161 -0.723228,0.41724 -1.335189,0.41724 z m -1.835887,-3.22671 c -0.445065,1.86372 -0.361615,2.25314 -0.194716,2.44785 0.111266,0.11127 0.250348,0.13908 0.611963,0.13908 h 1.474273 c 0.389431,0 0.584147,-0.0556 0.751045,-0.22253 0.139082,-0.13908 0.389431,-0.44506 0.834495,-2.3644 0.445063,-1.8637 0.361613,-2.25314 0.194715,-2.44785 -0.111266,-0.11126 -0.278164,-0.13908 -0.611962,-0.13908 h -1.474274 c -0.389431,0 -0.584147,0.0556 -0.778862,0.22253 -0.111266,0.1669 -0.361613,0.47288 -0.806677,2.3644 z m 8.178046,-3.19889 -0.890129,3.53268 c -0.361614,1.44647 -0.30598,1.8637 -0.111265,2.08624 0.139083,0.13909 0.333799,0.19472 0.973577,0.19472 h 0.751045 c 0.611962,0 0.834494,-0.0556 1.057026,-0.27817 0.166899,-0.16689 0.361615,-0.41724 0.723229,-1.94715 l 0.890127,-3.58832 h 0.723229 l -0.890128,3.5605 c -0.417247,1.72462 -0.667596,2.11405 -0.94576,2.39223 -0.389431,0.38942 -0.834495,0.44505 -1.557723,0.44505 H 35.52029 c -0.72323,0 -1.057028,-0.11126 -1.279559,-0.36161 -0.361614,-0.36162 -0.445063,-0.91794 -0.02782,-2.64256 l 0.862311,-3.44925 h 0.695412 z m 10.013933,4.70098 c -0.166899,0.77886 -0.278164,1.33519 -0.30598,1.72462 h -0.723229 c 0.02781,-0.44507 0.166899,-1.02922 0.305981,-1.75243 0.111266,-0.50071 0.08345,-0.72323 -0.08345,-0.86231 -0.139082,-0.13909 -0.361614,-0.19472 -0.778861,-0.19472 h -1.89152 l -0.695412,2.80946 h -0.72323 l 1.58554,-6.4256 h 2.865097 c 0.528514,0 0.834495,0.0835 1.029211,0.27816 0.278164,0.27816 0.38943,0.6954 0.194715,1.5299 -0.250349,1.11266 -0.723228,1.44646 -1.390824,1.52991 v 0.0279 c 0.556329,0.16689 0.778861,0.44507 0.611962,1.33519 z m -0.611962,-4.08902 H 43.03074 l -0.584147,2.42003 h 2.197502 c 0.333798,0 0.55633,-0.0556 0.695413,-0.19471 0.139083,-0.11127 0.333798,-0.36162 0.47288,-1.02922 0.166899,-0.66758 0.08345,-0.94575 -0.05563,-1.08484 -0.08345,-0.0835 -0.250348,-0.11126 -0.584146,-0.11126 z m 7.872065,-0.61196 -1.446458,5.81364 h 3.171079 l -0.139082,0.61196 h -3.894307 l 1.585539,-6.4256 z m 4.395003,6.4256 H 56.71645 l 1.585539,-6.4256 h 0.723229 z m 7.983331,-5.81364 h -3.226712 l -0.584146,2.28095 h 2.670385 l -0.166898,0.61196 h -2.670385 l -0.695413,2.89291 h -0.723228 l 1.585539,-6.4256 h 3.922123 z m 4.895702,5.20168 -0.13908,0.61196 h -4.144659 l 1.585541,-6.4256 h 4.144651 l -0.139074,0.61196 h -3.449251 l -0.528514,2.16968 h 2.94855 l -0.166898,0.61197 h -2.94855 l -0.584145,2.42003 z m 5.646742,0.61196 h -0.723225 l 1.585534,-6.4256 h 0.723236 z m 9.06817,-6.4256 -1.585533,6.4256 h -0.667596 c -0.222539,0 -0.305988,-0.0556 -0.361617,-0.25034 l -1.613358,-5.28514 h -0.111261 l -1.363007,5.53548 h -0.695412 l 1.585538,-6.4256 h 0.751045 c 0.22253,0 0.305979,0.0556 0.361611,0.25035 l 1.585543,5.14603 h 0.111265 l 1.335195,-5.39638 z m 9.207271,0.61196 h -3.226718 l -0.584146,2.28095 h 2.670386 l -0.166897,0.61196 h -2.670387 l -0.695416,2.89291 H 88.84449 l 1.585539,-6.4256 h 3.922125 z m 1.363003,5.81364 h -0.723228 l 1.585537,-6.4256 h 0.723229 z m 4.951334,-6.4256 -1.446458,5.81364 h 3.171078 l -0.13908,0.61196 h -3.894308 l 1.585537,-6.4256 z m 6.28652,6.09181 -0.41724,-5.47985 h -0.11127 l -1.44646,5.78582 h -0.69541 l 1.58555,-6.4256 h 0.97357 c 0.25034,0 0.30598,0.0835 0.3338,0.30598 l 0.41724,5.20168 h 0.11127 l 2.97637,-5.25731 c 0.11126,-0.19471 0.19471,-0.25035 0.38942,-0.25035 h 1.11267 l -1.58555,6.4256 h -0.72322 l 1.41863,-5.73019 h -0.11126 l -3.17108,5.47985 c -0.11127,0.22253 -0.1669,0.25034 -0.36162,0.25034 h -0.36161 c -0.27816,0.0279 -0.3338,-0.0279 -0.3338,-0.30597 z"
       id="path194"
       style="fill:#546677" />
  </g>
</svg>