<?xml version="1.0" encoding="UTF-8" standalone="no"?>
<svg
   xmlns:dc="http://purl.org/dc/elements/1.1/"
   xmlns:cc="http://creativecommons.org/ns#"
   xmlns:rdf="http://www.w3.org/1999/02/22-rdf-syntax-ns#"
   xmlns:svg="http://www.w3.org/2000/svg"
   xmlns="http://www.w3.org/2000/svg"
   xmlns:sodipodi="http://sodipodi.sourceforge.net/DTD/sodipodi-0.dtd"
   xmlns:inkscape="http://www.inkscape.org/namespaces/inkscape"
   height="54.650002"
   width="60.549999"
   id="svg2"
   version="1.1"
   inkscape:version="0.91 r13725"
   sodipodi:docname="Camera.svg">
  <metadata
     id="metadata197">
    <rdf:RDF>
      <cc:Work
         rdf:about="">
        <dc:format>image/svg+xml</dc:format>
        <dc:type
           rdf:resource="http://purl.org/dc/dcmitype/StillImage" />
        <dc:title></dc:title>
      </cc:Work>
    </rdf:RDF>
  </metadata>
  <sodipodi:namedview
     pagecolor="#ffffff"
     bordercolor="#666666"
     borderopacity="1"
     objecttolerance="10"
     gridtolerance="10"
     guidetolerance="10"
     inkscape:pageopacity="0"
     inkscape:pageshadow="2"
     inkscape:window-width="1920"
     inkscape:window-height="1033"
     id="namedview195"
     showgrid="false"
     inkscape:zoom="5.6930388"
     inkscape:cx="74.910875"
     inkscape:cy="42.177195"
     inkscape:window-x="-4"
     inkscape:window-y="-4"
     inkscape:window-maximized="1"
     inkscape:current-layer="svg2"
     fit-margin-top="0"
     fit-margin-left="0"
     fit-margin-right="0"
     fit-margin-bottom="0" />
  <path
     style="fill:#666666;fill-rule:evenodd;stroke:none"
     inkscape:connector-curvature="0"
     id="path10"
     d="m 39.7,25.5 c 0.833333,-1.066667 1.866667,-1.666667 3.1,-1.8 1.2,-0.1 2.233333,0.3 3.1,1.2 0.833333,0.9 1.25,2.066667 1.25,3.5 l -0.05,0.95 c -0.166667,1 -0.583333,1.916667 -1.25,2.75 -0.833333,1.033333 -1.85,1.633333 -3.05,1.8 -1.233333,0.1 -2.266667,-0.3 -3.1,-1.2 -0.4,-0.4 -0.7,-0.866667 -0.9,-1.4 -0.266667,-0.6 -0.4,-1.283333 -0.4,-2.05 0,-1.433333 0.433333,-2.683333 1.3,-3.75 m -4.6,-12.25 -0.25,-2.5 6.1,-1.1 0,2.5 -5.85,1.1 m 21,-5.7 0,2.95 L 46,12.4 46,9.45 56.1,7.55 M 44.55,2.2 52,3.7 41.7,5.55 35.5,3.95 44.55,2.2 m 0.55,26.45 c 0,-0.7 -0.216667,-1.3 -0.65,-1.8 -0.466667,-0.5 -1,-0.7 -1.6,-0.6 -0.666667,0.03333 -1.216667,0.333333 -1.65,0.9 -0.466667,0.6 -0.7,1.266667 -0.7,2 0,0.633333 0.183333,1.183333 0.55,1.65 l 0.15,0.15 c 0.433333,0.466667 0.983333,0.683333 1.65,0.65 0.633333,-0.1 1.166667,-0.433333 1.6,-1 l 0.4,-0.7 0.25,-1.25"
     sodipodi:nodetypes="cccccccccsccccccccccccccccccccscccccc" />
  <path
     style="fill:#999999;fill-rule:evenodd;stroke:none"
     inkscape:connector-curvature="0"
     id="path12"
     d="M 1.45,12.85 12.8,16.4 12.35,46.9 1.9,41.8 1.85,41.55 l -0.2,-1.2 0.15,0.05 9.3,4.4 0.25,-27.55 -9.7,-3.15 -0.2,-1.2 0,-0.05 m 3.35,4.6 1.3,0.4 0,21.65 -1.3,-0.65 0,-21.4 M 21.85,24 21.65,24.75 Q 21.45,25 20.9,25.05 L 20.55,25 q -0.6,-0.2 -0.6,-1 0,-0.8 0.5,-1 l 0.45,-0.1 q 0.45,0 0.7,0.25 L 21.85,24 m -0.95,4.6 q 0.95,0 0.95,1.05 0,1.05 -0.95,1.05 -0.95,0 -0.95,-1.05 0,-0.95 0.8,-1.05 l 0.15,0 m 0.7,5.3 q 0.35,0.25 0.4,0.9 l -0.05,0.45 q -0.2,0.55 -0.95,0.6 -0.95,-0.05 -0.95,-1.05 0,-1.1 0.95,-1.05 l 0.05,0 0.55,0.15 m 0.4,6.15 q -0.05,1.1 -1,1.1 -0.95,0 -0.95,-1.1 0,-1 0.95,-1 0.95,0 1,1 m -0.05,5.25 q -0.05,1 -0.95,1 -0.95,0 -0.95,-1 0,-1.1 0.95,-1.1 0.9,0 0.95,1.1" />
  <path
     style="fill:#333333;fill-rule:evenodd;stroke:none"
     inkscape:connector-curvature="0"
     id="path14"
     d="M 32.8,1.85 35.3,1.45 43.7,0 q 11.35,2.55 13.25,2.7 2.75,0.85 3.6,3.85 L 60.4,26.3 60.3,37 Q 59.9,41.2 57.2,42.05 20.8,54.4 19.1,54.65 L 12.35,54.4 2.9,48.95 Q 0.6,47.9 0.4,43.95 L 0,14.1 Q 0,7.55 5.65,6.55 L 19.45,4.15 20.55,4 22.7,3.6 31.55,2.05 32.8,1.85 m -9.6,6 q 1.95,0.6 2,1.6 L 25,10 57.2,3.8 44.15,1.25 7.75,7.4 12,8.45 q 0.5,-0.35 1.4,-0.6 1.95,-0.7 4.9,-0.7 l 1.3,0.05 1.1,0.1 2.2,0.45 0.3,0.1 M 23.15,8.8 22.95,8.35 q -0.5,-0.5 -2.2,-0.7 L 19.65,7.6 18.4,7.55 q -4.8,0 -4.8,1.25 0,1.3 4.8,1.3 l 1.35,0 1.1,-0.1 Q 22.55,9.75 23,9.25 L 23.15,8.8 m -0.9,2.95 -1.25,0.5 q -0.65,0.3 -1.1,0.75 -1.1,1.1 -1.2,3 l 1.4,0.25 1.1,0.25 2.25,0.8 q 1.8,0.85 2.7,2.1 0.6,0.9 0.75,2.05 l -0.15,12.7 -0.2,11.65 q -0.2,4.85 -4.4,6.35 l 34.4,-11.2 q 2.3,-0.85 2.5,-4.35 l 0,-29.65 Q 58.85,4.2 56.35,4.8 l -27.4,5.6 -5.85,1.2 -0.85,0.15 m -5.2,5.25 0,-0.8 Q 17,13.75 19.5,11.75 l -1.2,0 -4.9,-0.65 Q 11.3,10.4 11.35,9.45 L 11.35,9.3 5.4,7.55 q -3.7,0.6 -3.95,5.3 l 0,0.05 0,0.1 0.35,27.4 -0.15,-0.05 0.2,1.2 0.05,3 q -0.25,2.5 1.85,3.35 7.95,4.85 9.45,5.5 2.25,0.95 3.5,0.3 9.45,-2.35 8.5,-9.15 l 0.45,-22.7 -0.1,-0.55 Q 25.15,19.7 23.5,18.65 22.6,18.1 21.3,17.7 L 20.15,17.45 17.05,17 m 22.65,8.5 q -1.3,1.6 -1.3,3.75 0,1.15 0.4,2.05 0.3,0.8 0.9,1.4 1.25,1.35 3.1,1.2 1.8,-0.25 3.05,-1.8 1,-1.25 1.25,-2.75 l 0.05,-0.95 q 0,-2.15 -1.25,-3.5 -1.3,-1.35 -3.1,-1.2 -1.85,0.2 -3.1,1.8 m -3.4,6.4 q -0.35,-1.15 -0.35,-2.45 0,-3.2 2,-5.6 1.9,-2.55 4.7,-2.75 2.75,-0.25 4.7,1.8 1.9,2.1 1.9,5.3 l 0,0.65 q -0.2,2.75 -1.9,4.95 -1.95,2.35 -4.7,2.65 -2.8,0.3 -4.7,-1.75 -1.2,-1.2 -1.65,-2.8 m -3.95,-2.25 q 0,-4.9 2.95,-8.6 3,-3.7 7.25,-4.05 4.15,-0.35 7.05,2.8 2.9,3.15 2.9,7.95 l 0,0.35 q -0.15,4.5 -2.95,8.1 -2.9,3.6 -7.05,4.1 -4.2,0.45 -7.15,-2.7 -2,-2.05 -2.65,-4.85 -0.35,-1.45 -0.35,-3.1 m 2.15,2.7 q 0.55,2.2 2.1,3.9 2.45,2.55 5.95,2.2 3.4,-0.4 5.85,-3.4 2.25,-2.85 2.4,-6.55 l 0,-0.45 q 0.05,-4 -2.4,-6.6 -2.4,-2.6 -5.85,-2.3 -3.5,0.3 -5.95,3.4 -2.45,3.05 -2.4,7.1 -0.05,1.4 0.3,2.7 M 56.1,7.55 46,9.45 l 0,2.95 10.1,-1.9 0,-2.95 m 0.85,-1.9 0,5.5 L 46,13.25 45.8,7.8 56.95,5.65" />
  <path
     inkscape:connector-curvature="0"
     style="fill:url(#gradient15);fill-rule:evenodd;stroke:none"
     id="path46"
     d="M 23.2,7.85 22.9,7.75 20.7,7.3 19.6,7.2 18.3,7.15 q -2.95,0 -4.9,0.7 Q 12.5,8.1 12,8.45 L 7.75,7.4 44.15,1.25 57.2,3.8 25,10 25.2,9.45 q -0.05,-1 -2,-1.6 M 44.55,2.2 35.5,3.95 41.7,5.55 52,3.7 44.55,2.2" />
  <path
     inkscape:connector-curvature="0"
     style="fill:url(#gradient16);fill-rule:evenodd;stroke:none"
     id="path48"
     d="M 1.45,12.85 Q 1.7,8.15 5.4,7.55 l 5.95,1.75 0,0.15 Q 11.3,10.4 13.4,11.1 l 4.9,0.65 1.2,0 q -2.5,2 -2.45,4.45 l 0,0.8 -0.25,36.6 -0.1,0.1 Q 15.45,54.35 13.2,53.4 11.7,52.75 3.75,47.9 1.65,47.05 1.9,44.55 L 1.85,41.55 1.9,41.8 12.35,46.9 12.8,16.4 1.45,12.85 m 3.35,4.6 0,21.4 1.3,0.65 0,-21.65 -1.3,-0.4 m -3.35,-4.55 0.2,1.2 9.7,3.15 L 11.1,44.8 1.8,40.4 1.45,13 l 0,-0.1" />
  <path
     inkscape:connector-curvature="0"
     style="fill:url(#gradient17);fill-rule:evenodd;stroke:none"
     id="path50"
     d="M 23.15,8.8 23,9.25 Q 22.55,9.75 20.85,10 l -1.1,0.1 -1.35,0 q -4.8,0 -4.8,-1.3 0,-1.25 4.8,-1.25 l 1.25,0.05 1.1,0.05 q 1.7,0.2 2.2,0.7 l 0.2,0.45" />
  <path
     inkscape:connector-curvature="0"
     style="fill:url(#gradient18);fill-rule:evenodd;stroke:none"
     id="path52"
     d="m 16.7,53.7 0.1,-0.1 0.25,-36.6 3.1,0.45 1.15,0.25 q 1.3,0.4 2.2,0.95 1.65,1.05 2.05,2.65 l 0.1,0.55 -0.45,22.7 q 0.95,6.8 -8.5,9.15 m 4.9,-19.8 -0.55,-0.15 -0.05,0 q -0.95,-0.05 -0.95,1.05 0,1 0.95,1.05 0.75,-0.05 0.95,-0.6 L 22,34.8 q -0.05,-0.65 -0.4,-0.9 m -0.7,-5.3 -0.15,0 q -0.8,0.1 -0.8,1.05 0,1.05 0.95,1.05 0.95,0 0.95,-1.05 0,-1.05 -0.95,-1.05 M 21.85,24 21.6,23.15 Q 21.35,22.9 20.9,22.9 L 20.45,23 q -0.5,0.2 -0.5,1 0,0.8 0.6,1 l 0.35,0.05 Q 21.45,25 21.65,24.75 L 21.85,24 m 0.1,21.3 Q 21.9,44.2 21,44.2 q -0.95,0 -0.95,1.1 0,1 0.95,1 0.9,0 0.95,-1 M 22,40.05 q -0.05,-1 -1,-1 -0.95,0 -0.95,1 0,1.1 0.95,1.1 0.95,0 1,-1.1" />
  <path
     inkscape:connector-curvature="0"
     style="fill:url(#gradient19);fill-rule:evenodd;stroke:none"
     id="path54"
     d="m 36.3,31.9 q 0.45,1.6 1.65,2.8 1.9,2.05 4.7,1.75 2.75,-0.3 4.7,-2.65 1.7,-2.2 1.9,-4.95 l 0,-0.65 q 0,-3.2 -1.9,-5.3 -1.95,-2.05 -4.7,-1.8 -2.8,0.2 -4.7,2.75 -2,2.4 -2,5.6 0,1.3 0.35,2.45 m -1.8,0.45 q -0.35,-1.3 -0.3,-2.7 -0.05,-4.05 2.4,-7.1 2.45,-3.1 5.95,-3.4 3.45,-0.3 5.85,2.3 2.45,2.6 2.4,6.6 l 0,0.45 q -0.15,3.7 -2.4,6.55 -2.45,3 -5.85,3.4 -3.5,0.35 -5.95,-2.2 -1.55,-1.7 -2.1,-3.9" />
  <path
     inkscape:connector-curvature="0"
     style="fill:url(#gradient20);fill-rule:evenodd;stroke:none"
     id="path56"
     d="m 22.25,11.75 0.85,-0.15 5.85,-1.2 27.4,-5.6 q 2.5,-0.6 2.7,2.15 l 0,29.65 q -0.2,3.5 -2.5,4.35 l -34.4,11.2 q 4.2,-1.5 4.4,-6.35 l 0.2,-11.65 0.15,-12.7 Q 26.75,20.3 26.15,19.4 25.25,18.15 23.45,17.3 L 21.2,16.5 20.1,16.25 18.7,16 q 0.1,-1.9 1.2,-3 0.45,-0.45 1.1,-0.75 l 1.25,-0.5 m 5.7,18.55 q 0,1.85 0.35,3.5 0.8,4.2 3.65,7.25 4.05,4.15 9.65,3.55 5.55,-0.65 9.45,-5.5 3.9,-5 3.9,-11.35 l 0,-0.2 Q 54.95,21.25 51.1,17.1 47.15,12.9 41.65,13.35 36,13.85 32,18.8 27.95,23.75 27.95,30.3 m 7.15,-17.05 5.85,-1.1 0,-2.5 -6.1,1.1 0.25,2.5 M 56.95,5.65 45.8,7.8 l 0.2,5.45 10.95,-2.1 0,-5.5" />
  <path
     inkscape:connector-curvature="0"
     style="fill:url(#gradient21);fill-rule:evenodd;stroke:none"
     id="path58"
     d="m 27.95,30.3 q 0,-6.55 4.05,-11.5 4,-4.95 9.65,-5.45 5.5,-0.45 9.45,3.75 3.85,4.15 3.85,10.45 l 0,0.2 q 0,6.35 -3.9,11.35 -3.9,4.85 -9.45,5.5 Q 36,45.2 31.95,41.05 29.1,38 28.3,33.8 27.95,32.15 27.95,30.3 m 4.4,-0.65 q 0,1.65 0.35,3.1 0.65,2.8 2.65,4.85 2.95,3.15 7.15,2.7 4.15,-0.5 7.05,-4.1 2.8,-3.6 2.95,-8.1 l 0,-0.35 q 0,-4.8 -2.9,-7.95 -2.9,-3.15 -7.05,-2.8 -4.25,0.35 -7.25,4.05 -2.95,3.7 -2.95,8.6" />
  <path
     inkscape:connector-curvature="0"
     style="fill:url(#gradient22);fill-rule:evenodd;stroke:none"
     id="path60"
     d="m 45.1,28.65 -0.25,1.25 -0.4,0.7 q -0.65,0.85 -1.6,1 -1,0.05 -1.65,-0.65 L 41.05,30.8 q -0.55,-0.7 -0.55,-1.65 0,-1.1 0.7,-2 0.65,-0.85 1.65,-0.9 0.9,-0.15 1.6,0.6 0.65,0.75 0.65,1.8" />
  <defs
     id="defs66">
    <linearGradient
       gradientTransform="matrix(0,-0.0445,-0.0406,0,51.1,61.1)"
       gradientUnits="userSpaceOnUse"
       id="gradient0"
       spreadMethod="pad"
       x1="-819.20001"
       x2="819.20001">
      <stop
         offset="0.0"
         stop-color="#cc9900"
         id="stop69" />
      <stop
         offset="0.5019607843137255"
         stop-color="#ffcc66"
         id="stop71" />
      <stop
         offset="0.7803921568627451"
         stop-color="#ffff99"
         id="stop73" />
      <stop
         offset="1.0"
         stop-color="#ffff99"
         id="stop75" />
    </linearGradient>
    <linearGradient
       gradientTransform="matrix(0,0.0431,0.0392,0,51.1,61.1)"
       gradientUnits="userSpaceOnUse"
       id="gradient1"
       spreadMethod="pad"
       x1="-819.20001"
       x2="819.20001">
      <stop
         offset="0.0"
         stop-color="#ffffff"
         id="stop78" />
      <stop
         offset="1.0"
         stop-color="#ffcc66"
         id="stop80" />
    </linearGradient>
    <linearGradient
       gradientTransform="matrix(0,-0.0347,-0.05,0,61.95,69.15)"
       gradientUnits="userSpaceOnUse"
       id="gradient2"
       spreadMethod="pad"
       x1="-819.20001"
       x2="819.20001">
      <stop
         offset="0.0"
         stop-color="#ffcc66"
         id="stop83" />
      <stop
         offset="0.596078431372549"
         stop-color="#ffff99"
         id="stop85" />
      <stop
         offset="1.0"
         stop-color="#ffffff"
         id="stop87" />
    </linearGradient>
    <linearGradient
       gradientTransform="matrix(0,-0.0222,-0.0105,0,92.9,61.1)"
       gradientUnits="userSpaceOnUse"
       id="gradient3"
       spreadMethod="pad"
       x1="-819.20001"
       x2="819.20001">
      <stop
         offset="0.0"
         stop-color="#ffff99"
         id="stop90" />
      <stop
         offset="1.0"
         stop-color="#ffffff"
         id="stop92" />
    </linearGradient>
    <linearGradient
       gradientTransform="matrix(0,-0.0106,-0.0106,0,46.3,45.15)"
       gradientUnits="userSpaceOnUse"
       id="gradient4"
       spreadMethod="pad"
       x1="-819.20001"
       x2="819.20001">
      <stop
         offset="0.0"
         stop-color="#ffcc66"
         id="stop95" />
      <stop
         offset="1.0"
         stop-color="#ffff99"
         id="stop97" />
    </linearGradient>
    <linearGradient
       gradientTransform="matrix(0,0.0433,0.0365,0,67.25,35.5)"
       gradientUnits="userSpaceOnUse"
       id="gradient5"
       spreadMethod="pad"
       x1="-819.20001"
       x2="819.20001">
      <stop
         offset="0.0"
         stop-color="#999999"
         id="stop100" />
      <stop
         offset="1.0"
         stop-color="#666666"
         id="stop102" />
    </linearGradient>
    <linearGradient
       gradientTransform="matrix(0,0.0407,0.0344,0,67.35,35.5)"
       gradientUnits="userSpaceOnUse"
       id="gradient6"
       spreadMethod="pad"
       x1="-819.20001"
       x2="819.20001">
      <stop
         offset="0.0"
         stop-color="#ffffff"
         id="stop105" />
      <stop
         offset="1.0"
         stop-color="#dddddd"
         id="stop107" />
    </linearGradient>
    <linearGradient
       gradientTransform="matrix(0.0148,0.0148,0.0147,-0.0147,65.2,32.45)"
       gradientUnits="userSpaceOnUse"
       id="gradient7"
       spreadMethod="pad"
       x1="-819.20001"
       x2="819.20001">
      <stop
         offset="0.0"
         stop-color="#0099ff"
         id="stop110" />
      <stop
         offset="1.0"
         stop-color="#99ccff"
         id="stop112" />
    </linearGradient>
    <linearGradient
       gradientTransform="matrix(0,0.0194,0.0152,0,83.05,53.05)"
       gradientUnits="userSpaceOnUse"
       id="gradient8"
       spreadMethod="pad"
       x1="-819.20001"
       x2="819.20001">
      <stop
         offset="0.0"
         stop-color="#cccccc"
         id="stop115" />
      <stop
         offset="1.0"
         stop-color="#ccccff"
         id="stop117" />
    </linearGradient>
    <linearGradient
       gradientTransform="matrix(0,0.0213,0.0193,0,55,51.55)"
       gradientUnits="userSpaceOnUse"
       id="gradient9"
       spreadMethod="pad"
       x1="-819.20001"
       x2="819.20001">
      <stop
         offset="0.0"
         stop-color="#cccccc"
         id="stop120" />
      <stop
         offset="1.0"
         stop-color="#ccccff"
         id="stop122" />
    </linearGradient>
    <linearGradient
       gradientTransform="matrix(0,0.0168,0.0269,0,64.9,20.2)"
       gradientUnits="userSpaceOnUse"
       id="gradient10"
       spreadMethod="pad"
       x1="-819.20001"
       x2="819.20001">
      <stop
         offset="0.0"
         stop-color="#999999"
         id="stop125" />
      <stop
         offset="1.0"
         stop-color="#cccccc"
         id="stop127" />
    </linearGradient>
    <radialGradient
       cx="0"
       cy="0"
       gradientTransform="matrix(0.0202,0,0,0.0202,63.1,29.55)"
       gradientUnits="userSpaceOnUse"
       id="gradient11"
       r="819.20001"
       spreadMethod="pad">
      <stop
         offset="0.0"
         stop-color="#ffffff"
         id="stop130" />
      <stop
         offset="0.49411764705882355"
         stop-color="#ffffff"
         id="stop132" />
      <stop
         offset="0.7647058823529411"
         stop-color="#ccffff"
         id="stop134" />
      <stop
         offset="1.0"
         stop-color="#ccffff"
         id="stop136" />
    </radialGradient>
    <radialGradient
       cx="0"
       cy="0"
       gradientTransform="matrix(0.0102,0,0,0.0101,62.25,26.25)"
       gradientUnits="userSpaceOnUse"
       id="gradient12"
       r="819.20001"
       spreadMethod="pad">
      <stop
         offset="0.0"
         stop-color="#ffffff"
         id="stop139" />
      <stop
         offset="0.48627450980392156"
         stop-color="#ff9980"
         id="stop141" />
      <stop
         offset="1.0"
         stop-color="#ff3300"
         id="stop143" />
    </radialGradient>
    <linearGradient
       gradientTransform="matrix(0,0.0165,0.0214,0,74.25,57.5)"
       gradientUnits="userSpaceOnUse"
       id="gradient13"
       spreadMethod="pad"
       x1="-819.20001"
       x2="819.20001">
      <stop
         offset="0.0"
         stop-color="#ccffff"
         id="stop146" />
      <stop
         offset="1.0"
         stop-color="#99ccff"
         id="stop148" />
    </linearGradient>
    <linearGradient
       gradientTransform="matrix(0,0.0331,0.0481,0,62.05,68.95)"
       gradientUnits="userSpaceOnUse"
       id="gradient14"
       spreadMethod="pad"
       x1="-819.20001"
       x2="819.20001">
      <stop
         offset="0.0"
         stop-color="#ffffff"
         id="stop151" />
      <stop
         offset="1.0"
         stop-color="#ffffff"
         id="stop153" />
    </linearGradient>
    <linearGradient
       gradientTransform="matrix(-0.014,-0.014,-0.0162,0.0162,32.75,6.3)"
       gradientUnits="userSpaceOnUse"
       id="gradient15"
       spreadMethod="pad"
       x1="-819.20001"
       x2="819.20001">
      <stop
         offset="0.0"
         stop-color="#dddddd"
         id="stop156" />
      <stop
         offset="1.0"
         stop-color="#ffffff"
         id="stop158" />
    </linearGradient>
    <linearGradient
       gradientTransform="matrix(0,-0.0283,-0.0112,0,10.6,30.75)"
       gradientUnits="userSpaceOnUse"
       id="gradient16"
       spreadMethod="pad"
       x1="-819.20001"
       x2="819.20001">
      <stop
         offset="0.0"
         stop-color="#cccccc"
         id="stop161" />
      <stop
         offset="1.0"
         stop-color="#ffffff"
         id="stop163" />
    </linearGradient>
    <linearGradient
       gradientTransform="matrix(0,-0.0016,-0.0058,0,18.35,8.8)"
       gradientUnits="userSpaceOnUse"
       id="gradient17"
       spreadMethod="pad"
       x1="-819.20001"
       x2="819.20001">
      <stop
         offset="0.0"
         stop-color="#dddddd"
         id="stop166" />
      <stop
         offset="1.0"
         stop-color="#ffffff"
         id="stop168" />
    </linearGradient>
    <linearGradient
       gradientTransform="matrix(0.0055,0,0,-0.0224,21.1,35.4)"
       gradientUnits="userSpaceOnUse"
       id="gradient18"
       spreadMethod="pad"
       x1="-819.20001"
       x2="819.20001">
      <stop
         offset="0.0"
         stop-color="#999999"
         id="stop171" />
      <stop
         offset="1.0"
         stop-color="#ffffff"
         id="stop173" />
    </linearGradient>
    <linearGradient
       gradientTransform="matrix(0,-0.0118,-0.0102,0,42.5,28.85)"
       gradientUnits="userSpaceOnUse"
       id="gradient19"
       spreadMethod="pad"
       x1="-819.20001"
       x2="819.20001">
      <stop
         offset="0.0"
         stop-color="#666666"
         id="stop176" />
      <stop
         offset="1.0"
         stop-color="#999999"
         id="stop178" />
    </linearGradient>
    <linearGradient
       gradientTransform="matrix(0,-0.0289,-0.0246,0,38.85,28.45)"
       gradientUnits="userSpaceOnUse"
       id="gradient20"
       spreadMethod="pad"
       x1="-819.20001"
       x2="819.20001">
      <stop
         offset="0.0"
         stop-color="#ffffff"
         id="stop181" />
      <stop
         offset="1.0"
         stop-color="#999999"
         id="stop183" />
    </linearGradient>
    <linearGradient
       gradientTransform="matrix(0,0.0191,0.0165,0,41.45,29)"
       gradientUnits="userSpaceOnUse"
       id="gradient21"
       spreadMethod="pad"
       x1="-819.20001"
       x2="819.20001">
      <stop
         offset="0.0"
         stop-color="#ffffff"
         id="stop186" />
      <stop
         offset="1.0"
         stop-color="#999999"
         id="stop188" />
    </linearGradient>
    <linearGradient
       gradientTransform="matrix(0,0.0033,0.0028,0,42.8,28.95)"
       gradientUnits="userSpaceOnUse"
       id="gradient22"
       spreadMethod="pad"
       x1="-819.20001"
       x2="819.20001">
      <stop
         offset="0.0"
         stop-color="#0099ff"
         id="stop191" />
      <stop
         offset="1.0"
         stop-color="#003399"
         id="stop193" />
    </linearGradient>
  </defs>
</svg>
